<?xml version="1.0" standalone="no"?>
<!DOCTYPE svg PUBLIC "-//W3C//DTD SVG 20010904//EN"
 "http://www.w3.org/TR/2001/REC-SVG-20010904/DTD/svg10.dtd">
<svg version="1.0" xmlns="http://www.w3.org/2000/svg"
 width="136.000000pt" height="337.000000pt" viewBox="0 0 136.000000 337.000000"
 preserveAspectRatio="xMidYMid meet">

<g transform="translate(0.000000,337.000000) scale(0.100000,-0.100000)"
fill="#000000" stroke="none">
<path d="M630 3363 c-70 -6 -193 -36 -252 -60 -172 -69 -265 -174 -289 -323
-11 -72 -2 -112 43 -177 60 -89 160 -141 243 -128 76 11 172 85 201 154 31 75
2 161 -87 259 -72 79 -78 120 -20 159 25 17 48 23 86 23 170 0 278 -107 292
-290 16 -212 -88 -333 -326 -381 -52 -11 -96 -20 -97 -22 -1 -1 -5 -21 -9 -43
l-6 -42 73 -12 c212 -34 298 -59 346 -104 115 -104 85 -374 -57 -516 -86 -86
-188 -112 -270 -70 -89 45 -93 82 -23 191 27 41 54 89 60 108 24 70 8 165 -36
214 -25 29 -106 66 -164 77 -96 19 -189 -28 -245 -123 -40 -67 -46 -100 -34
-177 39 -239 258 -380 591 -380 249 0 449 81 581 234 69 81 92 143 93 251 1
105 -18 156 -80 218 -69 70 -152 108 -288 132 -43 8 -81 17 -84 19 -2 3 8 11
24 17 100 41 215 102 251 133 23 20 56 62 74 93 30 52 32 63 33 152 1 84 -2
103 -25 151 -55 117 -179 215 -319 252 -60 16 -183 21 -280 11z"/>
<path d="M516 1668 c-3 -7 -18 -85 -36 -173 -38 -194 -94 -370 -155 -490 -46
-89 -163 -271 -269 -415 l-54 -75 31 -33 31 -32 313 0 313 0 0 -144 0 -145
-37 -30 c-21 -17 -47 -31 -58 -31 -54 0 -65 -10 -65 -56 l0 -44 370 0 370 0 0
45 c0 43 -1 44 -37 51 -54 9 -100 47 -113 92 -5 20 -10 88 -10 150 l0 112 125
0 125 0 0 45 0 45 -125 0 -125 0 -2 437 -3 436 -207 -226 -208 -226 0 -211 0
-210 -261 0 c-145 0 -259 4 -257 9 2 5 150 174 330 377 403 455 506 582 587
717 l23 37 -296 0 c-229 0 -298 -3 -300 -12z"/>
</g>
</svg>
